<svg version="1.1" viewBox="0 0 142 142" xmlns="http://www.w3.org/2000/svg">
 <defs>
  <style>.cls-1{fill:#36a9e1;}.cls-2{fill:#fff;}</style>
 </defs>
 <rect class="cls-1" width="142" height="142" rx="6"/>
 <path id="Path" d="m22 98.28h-3.11a0.65 0.65 0 0 1-0.57-0.2 0.72 0.72 0 0 1-0.18-0.58v-17.4a0.73 0.73 0 0 1 0.18-0.59 0.67 0.67 0 0 1 0.57-0.19h3.11a0.63 0.63 0 0 1 0.56 0.2 0.68 0.68 0 0 1 0.19 0.58v1.17h0.14a3.39 3.39 0 0 1 1.48-1.4 4.38 4.38 0 0 1 2.37-0.55h1a4.89 4.89 0 0 1 4.51 2.36 4.42 4.42 0 0 1 4.22-2.36h1.06a5.57 5.57 0 0 1 4.2 1.55 6.53 6.53 0 0 1 1.43 4.51v12.12a0.69 0.69 0 0 1-0.19 0.58 0.65 0.65 0 0 1-0.57 0.2h-3.12a0.63 0.63 0 0 1-0.56-0.2 0.69 0.69 0 0 1-0.19-0.58v-11.9a2.31 2.31 0 0 0-0.47-1.67 2.21 2.21 0 0 0-1.61-0.52h-0.92c-1.66 0-2.52 1-2.52 2.88v11.22a0.7 0.7 0 0 1-0.8 0.78h-3a0.66 0.66 0 0 1-0.59-0.19 0.68 0.68 0 0 1-0.18-0.6v-11.9c0-0.76 0-1.25-0.47-1.67a1.94 1.94 0 0 0-1.64-0.5h-1.14c-1.7 0-2.48 0.92-2.48 2.86v11.27a0.72 0.72 0 0 1-0.21 0.54 0.68 0.68 0 0 1-0.5 0.18z"/>
 <path id="Shape" d="m70 98.29h-3.1a0.62 0.62 0 0 1-0.57-0.19 0.69 0.69 0 0 1-0.19-0.58v-24.44a0.69 0.69 0 0 1 0.19-0.58 0.67 0.67 0 0 1 0.57-0.19h3.1a0.7 0.7 0 0 1 0.58 0.19 0.69 0.69 0 0 1 0.19 0.58v24.44a0.69 0.69 0 0 1-0.19 0.58c-0.16 0.15-0.23 0.2-0.58 0.19zm6.78-18.84h3.54a0.58 0.58 0 0 1 0.58 0.25 0.63 0.63 0 0 1-0.1 0.67l-4.8 8.09v0.15l5 8.77a0.57 0.57 0 0 1 0 0.62 0.69 0.69 0 0 1-0.66 0.27h-3.25a1.39 1.39 0 0 1-0.72-0.14 1.58 1.58 0 0 1-0.57-0.63l-4.62-8.21a1.17 1.17 0 0 1 0-1.17l4.38-7.87a1.31 1.31 0 0 1 1.22-0.8z"/>
 <path d="m58.77 124.29h-8.13a5.47 5.47 0 0 1-6-6.06v-6.85a5.48 5.48 0 0 1 6-6.07h2.89a6 6 0 0 1 4.47 1.57 6.12 6.12 0 0 1 1.58 4.5v4.71a0.71 0.71 0 0 1-0.2 0.59 0.69 0.69 0 0 1-0.58 0.19h-9.14c-0.3 0-0.44 0.14-0.44 0.41v0.82a2.37 2.37 0 0 0 0.48 1.66c0.48 0.51 0.88 0.48 1.68 0.5h7.39c0.51 0 0.77 0.27 0.77 0.82v2.47a0.79 0.79 0 0 1-0.17 0.57 0.86 0.86 0 0 1-0.6 0.17zm-4.13-10.61a0.34 0.34 0 0 0 0.29-0.11 0.36 0.36 0 0 0 0.1-0.31v-1.73a2 2 0 0 0-0.47-1.68 2.33 2.33 0 0 0-1.65-0.48h-1.53a2.25 2.25 0 0 0-1.65 0.48 2 2 0 0 0-0.48 1.68v1.78a0.39 0.39 0 0 0 0.1 0.31 0.36 0.36 0 0 0 0.31 0.1z" data-name="Shape"/>
 <path d="m97.27 98.29h-8.13a5.47 5.47 0 0 1-6-6.06v-6.85a5.48 5.48 0 0 1 6-6.07h2.89a6 6 0 0 1 4.47 1.57 6.12 6.12 0 0 1 1.58 4.5v4.71a0.71 0.71 0 0 1-0.2 0.59 0.69 0.69 0 0 1-0.58 0.19h-9.14c-0.3 0-0.44 0.14-0.44 0.41v0.82a2.37 2.37 0 0 0 0.48 1.66c0.48 0.51 0.88 0.48 1.68 0.5h7.39c0.51 0 0.77 0.27 0.77 0.82v2.47a0.79 0.79 0 0 1-0.17 0.57 0.86 0.86 0 0 1-0.6 0.17zm-4.13-10.61a0.34 0.34 0 0 0 0.29-0.11 0.36 0.36 0 0 0 0.1-0.31v-1.73a2 2 0 0 0-0.47-1.68 2.33 2.33 0 0 0-1.65-0.48h-1.53a2.25 2.25 0 0 0-1.65 0.48 2 2 0 0 0-0.48 1.68v1.78a0.39 0.39 0 0 0 0.1 0.31 0.36 0.36 0 0 0 0.31 0.1z" data-name="Shape"/>
 <path d="m70 124.29h-0.9a5.88 5.88 0 0 1-4.37-1.57 6.16 6.16 0 0 1-1.54-4.49v-6.86a6.17 6.17 0 0 1 1.54-4.49 5.88 5.88 0 0 1 4.37-1.57h8.29a0.69 0.69 0 0 1 0.78 0.78v17.41a0.71 0.71 0 0 1-0.2 0.6 0.69 0.69 0 0 1-0.58 0.19h-3a0.66 0.66 0 0 1-0.56-0.2 0.72 0.72 0 0 1-0.19-0.59v-1.18h-0.15a2.76 2.76 0 0 1-1.39 1.46 4.6 4.6 0 0 1-2.12 0.51zm3.65-6.92v-7.55a0.38 0.38 0 0 0-0.43-0.41h-3.46a1.83 1.83 0 0 0-1.62 0.5 2.47 2.47 0 0 0-0.46 1.69v6.4a2.16 2.16 0 0 0 0.46 1.69 2.56 2.56 0 0 0 1.62 0.51h1.33c1.69 0.04 2.51-0.95 2.51-2.83z" data-name="Shape"/>
 <path d="m54 98.29h-0.9a5.88 5.88 0 0 1-4.37-1.57 6.16 6.16 0 0 1-1.54-4.49v-6.86a6.17 6.17 0 0 1 1.54-4.49 5.88 5.88 0 0 1 4.37-1.57h8.29a0.69 0.69 0 0 1 0.78 0.78v17.41a0.71 0.71 0 0 1-0.2 0.6 0.69 0.69 0 0 1-0.58 0.19h-3a0.66 0.66 0 0 1-0.56-0.2 0.72 0.72 0 0 1-0.19-0.59v-1.18h-0.15a2.76 2.76 0 0 1-1.39 1.46 4.6 4.6 0 0 1-2.12 0.51zm3.65-6.92v-7.55a0.38 0.38 0 0 0-0.43-0.41h-3.46a1.83 1.83 0 0 0-1.62 0.5 2.47 2.47 0 0 0-0.46 1.69v6.4a2.16 2.16 0 0 0 0.46 1.69 2.56 2.56 0 0 0 1.62 0.51h1.33c1.69 0.04 2.51-0.95 2.51-2.83z" data-name="Shape"/>
 <path d="m88.61 124.3h-6.69c-0.47 0-0.7-0.26-0.7-0.79v-2.37a0.88 0.88 0 0 1 0.13-0.57 0.71 0.71 0 0 1 0.57-0.17h5.86c1.12 0 1.73-0.38 1.73-1.12v-0.22c0-0.59-0.48-1.18-1.44-1.71l-3.44-2a8 8 0 0 1-2.63-2.1 4.65 4.65 0 0 1-0.85-2.87 5.33 5.33 0 0 1 1.25-3.84c1-1 1.83-1.21 4.08-1.18h6c0.47 0 0.7 0.26 0.7 0.78v2.42a0.9 0.9 0 0 1-0.14 0.58c-0.09 0.12-0.28 0.17-0.56 0.17h-5c-1.11 0-1.73 0.31-1.73 0.93v0.19c0 0.54 0.52 1.11 1.52 1.68l3.56 2.23a7.56 7.56 0 0 1 2.56 2.15 5.12 5.12 0 0 1 0.73 2.89c0 3.27-1.83 4.92-5.51 4.92z" data-name="Path"/>
 <path d="m99.56 130.29h-2.32c-0.49 0-0.73-0.27-0.73-0.82v-2.4c0-0.54 0.24-0.81 0.73-0.81h0.76c1.53 0 2 0.16 2.19-0.47a8.75 8.75 0 0 0-0.38-2.22l-4.65-17.5c-0.13-0.51 0-0.77 0.56-0.77h3.28a0.88 0.88 0 0 1 0.92 0.77l3.24 13.58h0.15l3.08-13.58a0.85 0.85 0 0 1 0.92-0.77h3.07c0.62 0 0.87 0.27 0.74 0.81l-4.48 18a9.45 9.45 0 0 1-2.48 4.67 6.44 6.44 0 0 1-4.58 1.55z" data-name="Path"/>
 <path id="Rectangle" class="cls-2" d="m18.51 105.3h4.51l0.05 0.06v0.06a0.24 0.24 0 0 1 0 0.08 0.15 0.15 0 0 1 0 0.07v18.24a0.22 0.22 0 0 1 0 0.08 0.25 0.25 0 0 1 0 0.07v0.06l-0.05 0.06h-4.78v-0.12a0.25 0.25 0 0 1 0-0.07 0.22 0.22 0 0 1 0-0.08v-18.13a0.15 0.15 0 0 1 0-0.07 0.24 0.24 0 0 1 0-0.08v-0.12h0.2z"/>
 <path class="cls-2" d="m32.11 124.3a0.44 0.44 0 0 1-0.43-0.45v-12.95c0-0.66-0.12-0.8-0.75-0.8h-4.36a0.44 0.44 0 0 1-0.44-0.44v-3.9a0.45 0.45 0 0 1 0.44-0.46h15.12a0.45 0.45 0 0 1 0.44 0.46v3.91a0.45 0.45 0 0 1-0.44 0.45h-4.35c-0.63 0-0.75 0.13-0.75 0.79v12.94a0.44 0.44 0 0 1-0.43 0.45z" data-name="Path"/>
 <path class="cls-2" d="m107.84 28.75-13.84 14.18a2.75 2.75 0 0 0 0 3.84 2.62 2.62 0 0 0 3.76 0l10.8-11a1.64 1.64 0 0 1 1.06-0.49 1.4 1.4 0 0 1 0.93 0.43l11.12 11.06a2.62 2.62 0 0 0 3.76 0 2.75 2.75 0 0 0 0-3.84l-13.82-14.18a2.63 2.63 0 0 0-3.77 0z"/>
 <path class="cls-2" d="m111.61 33.37 13.84-14.17a2.75 2.75 0 0 0 0-3.84 2.62 2.62 0 0 0-3.76 0l-10.8 11a1.64 1.64 0 0 1-1.06 0.49 1.37 1.37 0 0 1-0.93-0.43l-11.13-11.06a2.62 2.62 0 0 0-3.76 0 2.75 2.75 0 0 0 0 3.84l13.84 14.17a2.63 2.63 0 0 0 3.76 0z"/>
</svg>
